<?xml version="1.0" encoding="utf-8"?>
<!-- Generator: Adobe Illustrator 24.0.0, SVG Export Plug-In . SVG Version: 6.00 Build 0)  -->
<svg version="1.1" id="Layer_1" xmlns="http://www.w3.org/2000/svg" xmlns:xlink="http://www.w3.org/1999/xlink" x="0px" y="0px"
	 viewBox="0 0 718.22 718.22" style="enable-background:new 0 0 718.22 718.22;" xml:space="preserve" fill="#4d2483">
<path class="st0" d="M689.99,219.32c-18.09-42.76-43.98-81.17-76.95-114.14c-32.97-32.97-71.38-58.87-114.14-76.95
	C454.61,9.5,407.58,0,359.11,0c-48.47,0-95.5,9.5-139.79,28.23c-42.76,18.09-81.17,43.98-114.14,76.95
	c-32.97,32.97-58.87,71.38-76.95,114.14c-16.7,39.49-26.04,81.16-27.87,124.1c-0.37,1.83-0.44,3.7-0.2,5.53
	C0.06,352.33,0,355.72,0,359.11c0,48.47,9.5,95.5,28.23,139.79c12.14,28.7,27.81,55.42,46.75,79.87c0.77,1.32,1.72,2.52,2.83,3.6
	c8.5,10.68,17.62,20.92,27.37,30.68c32.97,32.97,71.38,58.87,114.14,76.95c5.14,2.18,10.33,4.21,15.54,6.14
	c0.39,0.16,0.78,0.32,1.18,0.45c39.33,14.37,80.64,21.64,123.06,21.64c42.3,0,83.5-7.24,122.73-21.52c0.62-0.19,1.23-0.42,1.83-0.68
	c5.11-1.89,10.19-3.89,15.23-6.02c42.76-18.09,81.17-43.98,114.14-76.95c32.97-32.97,58.87-71.38,76.95-114.14
	c18.73-44.28,28.23-91.31,28.23-139.79C718.22,310.64,708.72,263.61,689.99,219.32z M633.81,532.81l-30.57-94.33l80.3-58.64
	C680,435.83,662.23,488.01,633.81,532.81z M580.23,413.18l-76.87-24.73l-44.85-137.46l47.65-65.18h127.89
	c28.18,44.54,45.82,96.37,49.45,151.96L580.23,413.18z M358.86,475.98l-110.57-80.5l42.11-130.49h136.92l42.57,130.49L358.86,475.98
	z M214.82,388.46l-76.89,24.73L34.67,338.61c3.5-55.91,21.18-108.04,49.5-152.81h127.34l47.67,65.21L214.82,388.46z M34.73,380.6
	l80.2,57.92l-30.79,93.85C56,487.87,38.37,436.12,34.73,380.6z M609.36,151.81H509.9l-30.73-94.82
	C530.16,77.32,574.84,110.2,609.36,151.81z M439.21,44l39.47,121.79l-47.66,65.2H286.65l-47.64-65.17L278.97,44
	c25.64-6.53,52.49-10,80.14-10C386.74,34,413.58,37.48,439.21,44z M238.91,57.04l-31.09,94.77h-98.96
	C143.35,110.24,187.98,77.38,238.91,57.04z M108.78,566.32l39.62-120.78l76.9-24.74l116.53,84.84v80.46l-102.85,75.11
	C187.98,640.86,143.3,607.95,108.78,566.32z M278.86,674.19l80-58.42l80.4,58.44c-25.65,6.53-52.5,10.01-80.15,10.01
	C331.42,684.22,304.54,680.73,278.86,674.19z M479.22,661.22l-103.38-75.14v-80.41l117.06-84.87l76.89,24.73l39.29,121.23
	C574.6,608.18,530.05,640.94,479.22,661.22z"/>
</svg>
