<?xml version="1.0" encoding="utf-8"?>
<!-- Generator: Adobe Illustrator 24.0.0, SVG Export Plug-In . SVG Version: 6.00 Build 0)  -->
<svg version="1.1" id="LOGO" xmlns="http://www.w3.org/2000/svg" xmlns:xlink="http://www.w3.org/1999/xlink" x="0px" y="0px"
	 viewBox="0 0 362.74 349.43" style="enable-background:new 0 0 362.74 349.43;" xml:space="preserve">
<g>
	<g>
		<g>
			<g>
				<polygon style="fill:#FFFFFF;" points="23.34,311.28 61.19,42.41 320.39,182.29 				"/>
				<polygon style="fill:#1BB24B;" points="61.52,40.83 23.34,311.28 362.74,187.75 0,349.43 				"/>
				<polygon style="fill:#E92127;" points="0,349.43 46.43,1 320.3,182.26 61.19,42.41 				"/>
				<path style="fill:#F48D9F;" d="M46.43,1L320.3,182.26L26.6,309.68c0,0,333.45-119.67,336.14-121.93L46.43,1z"/>
			</g>
			<g>
				<path style="fill:#000001;" d="M296.72,143.66c-3.52,0.37-6.1-2.24-5.73-5.8c0.36-3.56,3.53-6.75,7.05-7.12
					c3.52-0.37,6.1,2.2,5.74,5.77C303.4,140.07,300.23,143.29,296.72,143.66z M297.92,131.85c-2.91,0.31-5.53,2.95-5.83,5.89
					c-0.3,2.94,1.84,5.11,4.75,4.8c2.91-0.31,5.54-2.98,5.84-5.92C302.96,133.68,300.82,131.54,297.92,131.85z M297.98,140.49
					l-1.47-2.24l-0.25,2.42l-1.47,0.16l0.69-6.82l2.2-0.23c1.35-0.14,2.57,0.34,2.41,1.89c-0.11,1.12-0.9,1.96-1.96,2.35l1.64,2.28
					L297.98,140.49z M297.56,135.08l-0.76,0.08l-0.2,1.92l0.76-0.08c0.61-0.06,1.16-0.37,1.23-1.08S298.17,135.01,297.56,135.08z"/>
			</g>
			<path style="fill:#FFFFFF;" d="M259.82,101.77l-6.3,38.75c-1.64-2.26-3.54-4.34-5.74-6.17c-6.76-5.62-15.63-8.6-25.65-8.6
				c-2.24,0-4.55,0.15-6.81,0.45l-0.28,0.04c-9.31,1.25-17.71,4.81-24.68,9.95l0.84-5.08l-12.42-0.1c-0.94,0-2.36,0.02-3.93,0.23
				c-3.05,0.41-6.15,1.33-9.16,2.69l-4.13,0.54l10-4.61l-60.48-28.22l-7.61,42.21c-1.68-3.15-3.68-6.06-6.05-8.61
				c-8.37-9.01-19.99-13.58-34.54-13.58c-3.61,0-7.47,0.28-11.82,0.84l-32.36,4.23L0.25,239.34l46.26-6.04
				c14.15-1.91,31.6-6.13,45.31-21.17l-2.59,15.51l32.27-4.35l-0.03,0.21l36.31-4.74l6.32-37.92c1.37-8.16,2.48-11.25,6.62-12.85
				c-0.47,2.95-0.67,5.98-0.56,9.07c0.38,11.14,4.74,20.49,12.6,27.03c6.9,5.75,15.93,8.79,26.1,8.79c0,0,0,0,0,0
				c2.26,0,4.58-0.15,6.86-0.45l0.26-0.03c10.83-1.46,20.41-6.04,27.91-12.64l-1.29,7.93l37.62-12.55l16.1-98.12L259.82,101.77z
				 M62.36,190.77c-5.03,4.3-10.26,5.87-17.39,6.92l6.38-39.16l0.68-0.09c3.49-0.45,5.92-0.72,8.04-0.72c2.45,0,4.22,0.36,6.09,1.23
				c2.85,1.34,4.58,5.01,4.76,10.08C71.24,178.29,68.35,185.61,62.36,190.77z M213.2,178.84c-0.5,0.07-1,0.1-1.47,0.1
				c-1.74,0-3.17-0.43-4.15-1.24c-0.38-0.32-1.56-1.3-1.65-4c-0.23-6.8,4.85-12.84,11.64-13.75c0.53-0.07,1.05-0.11,1.55-0.11
				c1.72,0,3.18,0.42,4.1,1.19c0.37,0.31,1.51,1.26,1.61,4.05C225.06,171.55,219.6,177.98,213.2,178.84z"/>
			<g>
				<polygon style="fill:#EC3346;" points="110.88,148.84 117.24,113.51 152.17,129.81 				"/>
				<g>
					<path style="fill:#FFFFFF;" d="M91.45,140.79c-11.39-12.26-27.89-11.69-39.31-10.2l-26.34,3.44l-15.72,95.8l35.34-4.62
						c15.2-2.05,32.42-6.51,44.78-24.05c7.21-10.23,11.1-23.24,10.67-35.69C100.54,155.72,97.19,146.95,91.45,140.79z M67.67,196.98
						c-6.82,5.83-13.79,7.76-22.82,8.97l-0.54,0.07c-3,0.39-6.08,0.79-9.14,1.13l9.11-55.94l6.71-0.88
						c7.8-1.02,12.94-1.44,18.66,1.22c5.72,2.69,9.16,8.95,9.44,17.18C79.36,176.89,77.6,188.41,67.67,196.98z"/>
					<path style="fill:#FFFFFF;" d="M178.45,158.2l3.15-19l-2.41-0.02c-0.97-0.01-2.09,0-3.23,0.15
						c-5.45,0.73-11.05,3.65-15.39,7.74l0.71-4.34l-18.82,2.46l-11.18,68.8l19.45-2.54l5.32-31.95
						c2.31-13.81,5.73-19.07,20.35-21.04L178.45,158.2z"/>
					<path style="fill:#FFFFFF;" d="M242.56,140.62c-6.53-5.43-15.84-7.68-26.24-6.32l-0.19,0.02c-22.29,3-38.55,21.26-37.82,42.47
						c0.3,8.75,3.64,16.02,9.66,21.03c6.69,5.57,16.19,7.89,26.73,6.51l0.19-0.02c22.07-2.97,38.17-21.05,37.45-42.05
						C252.03,153.17,248.64,145.69,242.56,140.62z M216.43,151.87l0.09-0.01c4.71-0.61,8.95,0.42,11.94,2.91
						c2.83,2.35,4.4,5.83,4.54,10.05c0.36,10.57-8.18,20.7-18.73,22.12c-4.65,0.61-8.87-0.45-11.9-2.97
						c-2.85-2.38-4.44-5.83-4.58-9.99C197.4,163.04,205.59,153.33,216.43,151.87z"/>
					<polygon style="fill:#FFFFFF;" points="266.9,109.08 252.42,198.17 271.87,195.63 286.48,106.52 					"/>
					<polygon style="fill:#FFFFFF;" points="109.15,157.9 99.1,218.07 117.84,215.55 128.76,149.18 					"/>
				</g>
				<g>
					<path style="fill:#1E2223;" d="M91.45,140.79c-11.39-12.26-27.89-11.69-39.31-10.2l-26.34,3.44l-15.72,95.8l35.34-4.62
						c15.2-2.05,32.42-6.51,44.78-24.05c7.21-10.23,11.1-23.24,10.67-35.69C100.54,155.72,97.19,146.95,91.45,140.79z M67.67,196.98
						c-6.82,5.83-13.79,7.76-22.82,8.97l-0.54,0.07c-3,0.39-6.08,0.79-9.14,1.13l9.11-55.94l6.71-0.88
						c7.8-1.02,12.94-1.44,18.66,1.22c5.72,2.69,9.16,8.95,9.44,17.18C79.36,176.89,77.6,188.41,67.67,196.98z"/>
					<path style="fill:#000001;" d="M178.45,158.2l3.15-19l-2.41-0.02c-0.97-0.01-2.09,0-3.23,0.15
						c-5.45,0.73-11.05,3.65-15.39,7.74l0.71-4.34l-18.82,2.46l-11.18,68.8l19.45-2.54l5.32-31.95
						c2.31-13.81,5.73-19.07,20.35-21.04L178.45,158.2z"/>
					<path style="fill:#000001;" d="M242.56,140.62c-6.53-5.43-15.84-7.68-26.24-6.32l-0.19,0.02c-22.29,3-38.55,21.26-37.82,42.47
						c0.3,8.75,3.64,16.02,9.66,21.03c6.69,5.57,16.19,7.89,26.73,6.51l0.19-0.02c22.07-2.97,38.17-21.05,37.45-42.05
						C252.03,153.17,248.64,145.69,242.56,140.62z M216.43,151.87l0.09-0.01c4.71-0.61,8.95,0.42,11.94,2.91
						c2.83,2.35,4.4,5.83,4.54,10.05c0.36,10.57-8.18,20.7-18.73,22.12c-4.65,0.61-8.87-0.45-11.9-2.97
						c-2.85-2.38-4.44-5.83-4.58-9.99C197.4,163.04,205.59,153.33,216.43,151.87z"/>
					<polygon style="fill:#000001;" points="266.9,109.08 252.42,198.17 271.87,195.63 286.48,106.52 					"/>
					<polygon style="fill:#000001;" points="109.15,157.9 99.1,218.07 117.84,215.55 128.76,149.18 					"/>
				</g>
				<path style="fill:#000001;" d="M91.45,140.79c-11.39-12.26-27.89-11.69-39.31-10.2l-26.34,3.44l-15.72,95.8l35.34-4.62
					c15.2-2.05,32.42-6.51,44.78-24.05c7.21-10.23,11.1-23.24,10.67-35.69C100.54,155.72,97.19,146.95,91.45,140.79z M67.67,196.98
					c-6.82,5.83-13.79,7.76-22.82,8.97l-0.54,0.07c-3,0.39-6.08,0.79-9.14,1.13l9.11-55.94l6.71-0.88
					c7.8-1.02,12.94-1.44,18.66,1.22c5.72,2.69,9.16,8.95,9.44,17.18C79.36,176.89,77.6,188.41,67.67,196.98z"/>
			</g>
		</g>
	</g>
</g>
</svg>
