<?xml version="1.0" encoding="utf-8"?>
<!-- Generator: Adobe Illustrator 24.0.0, SVG Export Plug-In . SVG Version: 6.00 Build 0)  -->
<svg version="1.1" id="txt_x26_vector" xmlns="http://www.w3.org/2000/svg" xmlns:xlink="http://www.w3.org/1999/xlink" x="0px"
	 y="0px" viewBox="0 0 159.02 43.93" style="enable-background:new 0 0 159.02 43.93;" xml:space="preserve">
<g>
	<path style="fill:#EE2459;" d="M144.7,12.27c0.13,0.06,0.82,0.32,0.96,0.37c0.99,0.39,2.2,0.91,3.18,1.41
		c1.61,0.33,2.45,0.24,3.58-0.44c1.13-0.68,1.49-1.13,2.13-1.77c-1.46,1.37-3.3,1.17-5,0.94C148.03,12.58,145.74,12.32,144.7,12.27"
		/>
	<g>
		<path style="fill:#EE2459;" d="M135.01,24.08c1.38,0.1,3.02,0.22,3.88,0.02c-0.44-0.17-1.23-0.48-1.56-0.61
			c-6.42-2.59-8.72-6.41-8.61-10.8c0.11-4.32,2.21-7.35,5.51-9.24c-4.72,2.5-7.1,6.05-7.1,10.44
			C127.12,18.22,129.82,21.92,135.01,24.08"/>
		<path style="fill:#EE2459;" d="M104.39,22.48l5.55-16.98c0.8-2.44,2.03-3.26,3.11-3.69c-2.29,0.92-4.39,1.91-5.22,4.45
			l-5.32,16.24L104.39,22.48z"/>
		<path style="fill:#EE2459;" d="M82.35,20.41l4.71-14.76c0.87-2.72,2.07-3.43,3.02-3.82c-2.2,0.92-4.23,1.79-5.05,4.37l-2.86,8.91
			C82.25,17.57,82.33,19.84,82.35,20.41"/>
		<path style="fill:#EE2459;" d="M137.98,35.81c-4.8,0-11.91-0.83-14.89-1.04c-3.67-0.25-15.4-0.76-19.98-0.86
			c-7.03-0.14-17.13-0.03-21.81,0.08c-6.94,0.15-14.36,0.55-14.36,0.55c0.67-1.6,1.05-3.52,1.05-5.37c0-0.16,0-0.5-0.01-0.97
			c-1.99,0.06-4.2,0.15-6.77,0.26l-1.01,1.56l5.87-0.22c0.01,1.55-0.3,3.05-1.59,6.34c5.39-0.32,11.5-0.53,16.12-0.67
			c7.04-0.21,14.3-0.21,21.88-0.07c6.42,0.11,15.19,0.5,19.75,0.81c2.16,0.15,10.73,1.03,14.73,1.03c8.59,0,12.66-2.75,15.02-5.82
			C148.73,34.7,143.54,35.81,137.98,35.81"/>
		<path style="fill:#EE2459;" d="M3.61,41.78c2.17-2.8,3.25-6.21,3.88-8.07l9.99-28.72c0.87-2.52,2.19-3.85,3.67-4.44
			c-3.15,1.36-4.88,2.2-5.78,4.81l-9.54,27.4C4.33,37.11,2.45,41.1,0,43.93c6.39-1.09,11.33-1.85,15.9-2.56
			c2.48-0.38,4.52-1.36,6.64-4.01c-1,1.23-2.45,1.85-3.84,2.09c-1.41,0.25-2.7,0.41-5.64,0.84C9.26,40.84,3.61,41.78,3.61,41.78"/>
		<path style="fill:#EE2459;" d="M27.18,38.37c1.72-2.19,2.64-4.75,3.63-7.64l2.11-6.26c-1.6,0.07-3.62,0.14-5.41,0.22l-0.53,1.53
			c1.18-0.05,2.44-0.09,3.49-0.14c0,0-1.18,3.54-1.72,5.1c-1.17,3.37-2.8,6.57-4.95,9.08c6.44-0.83,11.59-1.42,15.87-1.9
			c3.75-0.43,6.76-0.71,11.62-1.18c3.75-0.37,5.21-1.95,6.59-3.8c-1.34,1.53-3.06,2.03-5.23,2.24c-4.05,0.38-9,0.87-11.91,1.19
			C35.02,37.43,27.18,38.37,27.18,38.37"/>
		<path style="fill:#EE2459;" d="M35.13,12.28c0.67,0,1.31-0.01,1.91-0.02l2.49-7.5c0.95-2.88,2.42-3.76,3.41-4.19
			c-3.17,1.39-4.6,2.11-5.48,4.72L35.13,12.28z"/>
		<path style="fill:#EE2459;" d="M58.92,5.75c-0.28,0.42-3.45,5.26-6.57,9.9l-1.92,5.74C55.47,13.98,61.17,5.48,61.6,4.85
			c1.16-1.72,2.31-2.6,3.47-3.03C63.53,2.42,60.54,3.37,58.92,5.75"/>
	</g>
	<path style="fill:#EE2459;" d="M145.66,12.64c-0.14-0.05-0.83-0.32-0.96-0.37c1.04,0.05,3.42,0.31,5.12,0.56
		c2.87,0.41,4.71-0.09,5.91-2.71c1.05-2.28,3.3-7.2,3.3-7.2c-4.33-1.04-9.65-1.85-14.01-1.85h-0.46c-8.41,0-15.64,3.54-15.84,11.63
		c-0.08,3.42,1.21,7.8,8.61,10.8c0.33,0.13,1.12,0.45,1.56,0.61c-1.06,0.22-2.8,0.08-6.39-0.23c-3.39-0.29-8.4-0.66-12.65-0.86
		c0.67-2.09,4.84-14.92,4.84-14.92c1.17-3.71,1.86-4.95,3.35-6.67h-12.7c-3.1,0-4.6,1.62-5.4,4.07l-5.55,16.98
		c0,0-5.81,0.02-7.2-0.01l4.66-14.56c1.09-3.38,1.66-4.69,3.21-6.48H92.48c-3.29,0.01-4.58,1.6-5.42,4.23l-4.71,14.76
		c-0.06-1.43-0.48-13.33-0.48-13.33c-0.07-2.26,0.19-3.82,1.16-5.66H68.04c-2.36,0-4.34,0.31-6.44,3.43
		c-0.43,0.63-6.13,9.14-11.17,16.54L55.15,7.3c1.14-3.44,2.49-5.57,4.05-7.2H45.04c-2.38,0.17-4.37,1.23-5.51,4.65l-2.49,7.5
		c-1.57,0.01-3.44,0.03-5.19,0.05l1.67-4.93c1.29-3.71,2.6-5.68,4.13-7.27H23.17c-2.7,0.2-4.58,1.66-5.69,4.89L7.41,33.97
		c-0.91,2.65-1.81,5.23-3.8,7.81c0,0,5.6-0.94,9.4-1.49c3.1-0.44,4.27-0.58,5.69-0.84c3.02-0.55,4.45-2.26,5.46-5.16l3.36-9.61
		c1.78-0.08,3.81-0.15,5.41-0.22l-2.11,6.26c-0.99,2.89-1.91,5.45-3.63,7.64c0,0,7.84-0.94,13.55-1.58c2.58-0.29,7.9-0.8,11.9-1.18
		c3.58-0.34,4.91-1.48,6.34-3.7c0.94-1.45,2.24-3.46,2.24-3.46c2.57-0.11,4.78-0.2,6.77-0.26c0.01,0.47,0.01,0.81,0.01,0.97
		c0,1.85-0.38,3.77-1.05,5.37c0,0,7.42-0.39,14.36-0.55c4.68-0.11,14.78-0.22,21.81-0.08c4.58,0.1,16.3,0.6,19.98,0.86
		c2.98,0.21,10.07,1.04,14.89,1.04c12.67,0,17.04-5.79,17.04-12.39C155.02,16.96,150.01,14.34,145.66,12.64"/>
	<g>
		<path style="fill:#EE2459;" d="M125.8,32.57c3.17,0.34,6.81,0.66,10.21,0.81c13.72,0.61,16.48-5.25,16.48-9.9
			c0-4.33-3.03-6.54-7.49-8.52c-2.83-1.25-4.21-2.04-4.21-3.18c0-1.2,1.39-1.81,4-1.81c1.11,0,3.11,0.19,4.99,0.45
			c2.27,0.31,3.1,0.17,3.9-1.59c0.62-1.37,1.95-4.27,1.95-4.27c-3.6-0.72-6.94-1.26-10.92-1.26c-7.98-0.05-13.55,3.39-13.55,9.3
			c-0.01,9.28,11.97,8.53,11.13,12.03c-0.29,1.23-1.64,1.72-4.95,1.69c-1.43-0.01-4.33-0.28-5.87-0.36
			c-1.71-0.09-2.64-0.02-3.22,1.27C127.77,28.27,125.8,32.57,125.8,32.57"/>
		<path style="fill:#EE2459;" d="M94.8,24.74c-0.65,0-1.82,0.01-2.4,0.01c1.28-0.48,1.9-1.16,2.11-1.76
			c1.77-5.59,3.37-10.58,5.19-16.23c0.39-1.21,0.83-2.36,1.34-3.05h-9.32c-1.19,0.02-1.83,0.96-2.28,2.38
			c-0.48,1.5-8.17,25.52-8.17,25.52c3.74-0.07,12.13-0.12,17.39-0.11c1.92,0.01,3.02-0.42,4.1-2.33c0.72-1.27,2.41-4.43,2.41-4.43
			C104.07,24.76,96.27,24.73,94.8,24.74"/>
		<path style="fill:#EE2459;" d="M44.55,2.4c-1.22,0.08-2.04,1.01-2.65,2.86c-1.04,3.14-2.04,6.15-3.11,9.37
			c-2.96,0.03-6.7,0.06-10.36,0.12c1.12-3.22,1.95-5.57,3.05-8.76c0.53-1.52,1.16-2.8,1.8-3.59H22.68c-1.28,0.15-2.07,1.32-2.7,3.13
			c-1.08,3.12-9.18,26.4-10.33,29.74c-0.44,1.25-0.87,2.48-1.59,3.34c3.63-0.6,6.8-0.93,10.39-1.52c1.61-0.26,2.58-1.04,3.46-3.56
			c1.09-3.12,2.79-8,3.89-11.15c4.5-0.2,9.31-0.38,12.41-0.51c-1.44,0.73-2.17,1.08-2.56,2.27c-0.87,2.63-1.95,5.89-2.76,8.34
			c-0.39,1.17-0.82,2.21-1.39,2.99c3.59-0.42,6.74-0.77,10.08-1.15c1.43-0.2,2.29-0.8,3.14-3.35c2.75-8.31,5.51-16.58,8.26-24.89
			c0.46-1.38,1.2-2.92,1.82-3.68H44.55z"/>
		<path style="fill:#EE2459;" d="M115.03,25.05c1.27-0.41,1.97-1.02,2.18-1.68c1.86-5.79,3.53-10.8,5.39-16.62
			c0.41-1.3,0.86-2.38,1.34-3.05h-9.44c-1.07,0.05-1.78,0.97-2.21,2.3c-0.61,1.88-8.36,25.57-8.36,25.57
			c3.66,0.11,11.71,0.46,16.86,0.69c1.88,0.08,3.1-0.29,4.31-2.24c0.74-1.19,2.56-4.32,2.56-4.32
			C123.44,25.4,118.72,25.15,115.03,25.05"/>
		<path style="fill:#EE2459;" d="M80.32,29.24c-0.22-6.86-0.57-15.5-0.85-22.02c0-0.02,0.01-0.03,0.01-0.04
			c-0.05-1.38,0.04-2.46,0.35-3.48H66.91c-1.19,0.05-2.04,0.58-3.4,2.59c-0.81,1.22-18.7,27.69-18.7,27.69
			c2.01-0.2,4.97-0.5,7.82-0.77c2-0.2,2.95-0.45,4.48-2.81c0.77-1.2,2.77-4.29,2.77-4.29c3.83-0.17,7.72-0.32,11.55-0.41
			c0.19,0,0.37-0.01,0.52-0.01c-1.01,0.6-1.57,1.03-1.58,1.71c0,0,0,1.44,0,1.73c0.02,1.64-0.36,2.86-0.36,2.86
			c2.62-0.12,6.01-0.27,8.31-0.33C79.98,31.6,80.36,30.44,80.32,29.24 M70.27,10l0.1,9.45c-2.3,0.05-4.06,0.11-6.32,0.19L70.27,10z"
			/>
	</g>
	<g>
		<path style="fill:#EE2459;" d="M142.28,24.63c-0.27,1.11-1.39,1.73-5.08,1.69c0.19,0,0.76,0.09,1.94,0.09
			c4.13,0,4.77-1.35,4.77-2.56c0-3.89-11.23-3.11-11.23-11.39c0-5.93,5.09-9.05,12.94-9.15c-0.3-0.01-0.6-0.01-0.92-0.01
			c-7.98-0.05-13.55,3.39-13.55,9.3C131.15,21.87,143.12,21.13,142.28,24.63"/>
		<path style="fill:#EE2459;" d="M127.45,32.74c0,0,2.27-4.98,2.56-5.63c0.34-0.76,0.91-1.06,1.6-1.14
			c-0.36-0.03-0.96-0.03-1.17-0.03c-1.23,0.03-1.8,0.4-2.2,1.27c-0.46,1.02-2.45,5.35-2.45,5.35L127.45,32.74z"/>
		<path style="fill:#EE2459;" d="M91.22,5.83c0.44-1.38,1.01-1.94,1.87-2.13H91.7c-1.17,0.02-1.81,0.93-2.27,2.38
			c-0.51,1.59-8.17,25.52-8.17,25.52c0.5-0.01,1.08-0.02,1.71-0.03C83.14,31.04,90.74,7.32,91.22,5.83"/>
		<path style="fill:#EE2459;" d="M40.6,14.61c1.07-3.22,2.12-6.39,3.16-9.54c0.56-1.69,1.48-2.61,2.6-2.67h-1.8
			c-1.15,0.07-2.02,0.95-2.62,2.76c-1.04,3.14-2.08,6.25-3.14,9.46L40.6,14.61z"/>
		<path style="fill:#EE2459;" d="M22.68,2.4c-1.23,0.15-2.03,1.19-2.7,3.13c-1.09,3.12-9.18,26.4-10.33,29.74
			c-0.44,1.25-0.86,2.46-1.59,3.34c0.62-0.1,1.06-0.17,1.72-0.28c0.76-0.35,1.13-1.22,1.5-2.27c1.16-3.34,9.56-27.52,10.64-30.64
			c0.63-1.81,1.47-2.87,2.65-3.01H22.68z"/>
		<path style="fill:#EE2459;" d="M34.39,33.29c0.93-2.8,2.72-8.13,3.81-11.43c-1.49,0.74-2.18,1.11-2.55,2.26
			c-0.9,2.72-1.92,5.77-2.77,8.35c-0.39,1.17-0.79,2.16-1.39,2.99c0.6-0.07,1-0.12,1.64-0.19C33.64,34.96,34.04,34.36,34.39,33.29"
			/>
		<path style="fill:#EE2459;" d="M105.61,31.64c0,0,7.84-23.95,8.45-25.83c0.42-1.28,1.04-1.94,1.89-2.1h-1.36
			c-1.18,0-1.86,0.92-2.3,2.3c-0.61,1.88-8.36,25.57-8.36,25.57L105.61,31.64z"/>
		<polygon style="fill:#EE2459;" points="70.38,19.45 71.95,19.41 71.81,7.61 70.27,10 		"/>
		<path style="fill:#EE2459;" d="M65.42,6.3c1.42-2.12,2.13-2.46,3.54-2.59h-2.03c-1.46,0.01-2.4,1.07-3.42,2.59
			c-0.81,1.22-18.7,27.69-18.7,27.69c0.5-0.05,1.36-0.14,2.05-0.2C48.35,31.57,64.64,7.45,65.42,6.3"/>
		<path style="fill:#EE2459;" d="M71.66,31.93c0.1-0.29,0.31-1.37,0.3-2.78c0-0.3-0.02-3.44-0.02-3.44c-1,0.6-1.57,1.04-1.58,1.71
			c0,0,0,1.44,0,1.73c0.02,1.64-0.36,2.86-0.36,2.86C70.51,31.98,71.03,31.95,71.66,31.93"/>
	</g>
</g>
<g>
	<g>
		<path style="fill:#00AEEF;" d="M135,24.08c1.39,0.1,3.02,0.22,3.88,0.02c-0.44-0.17-1.23-0.48-1.56-0.61
			c-6.42-2.59-8.72-6.41-8.62-10.8c0.11-4.32,2.21-7.35,5.5-9.24c-4.71,2.5-7.1,6.05-7.1,10.44C127.12,18.22,129.82,21.92,135,24.08
			z"/>
		<path style="fill:#00AEEF;" d="M104.39,22.48l5.55-16.98c0.8-2.44,2.03-3.26,3.11-3.69c-2.29,0.92-4.39,1.91-5.21,4.45
			l-5.32,16.24L104.39,22.48z"/>
		<path style="fill:#00AEEF;" d="M82.35,20.41l4.71-14.76c0.87-2.72,2.07-3.43,3.02-3.83c-2.2,0.92-4.23,1.79-5.05,4.37l-2.86,8.9
			C82.24,17.57,82.33,19.84,82.35,20.41z"/>
		<path style="fill:#00AEEF;" d="M144.7,12.27c0.13,0.05,0.82,0.32,0.96,0.37c0.99,0.39,2.19,0.91,3.19,1.41
			c1.61,0.33,2.45,0.24,3.58-0.44c1.12-0.68,1.49-1.12,2.13-1.77c-1.46,1.37-3.3,1.17-5,0.94C148.03,12.58,145.74,12.32,144.7,12.27
			z"/>
		<path style="fill:#00AEEF;" d="M137.98,35.81c-4.8,0-11.91-0.83-14.9-1.04c-3.67-0.25-15.39-0.76-19.97-0.86
			c-7.03-0.14-17.14-0.03-21.81,0.08c-6.94,0.16-14.36,0.55-14.36,0.55c0.67-1.6,1.04-3.52,1.04-5.37c0-0.17,0-0.5-0.01-0.97
			c-1.99,0.06-4.2,0.14-6.77,0.26l-1.01,1.56l5.87-0.22c0.02,1.55-0.3,3.06-1.58,6.34c5.39-0.32,11.5-0.53,16.11-0.67
			c7.04-0.21,14.31-0.21,21.88-0.08c6.42,0.11,15.19,0.5,19.75,0.81c2.16,0.15,10.73,1.03,14.73,1.03c8.59,0,12.67-2.74,15.03-5.82
			C148.73,34.7,143.53,35.81,137.98,35.81z"/>
		<path style="fill:#00AEEF;" d="M3.61,41.78c2.17-2.8,3.24-6.21,3.88-8.07l9.99-28.72c0.87-2.52,2.19-3.85,3.68-4.44
			c-3.15,1.36-4.88,2.2-5.78,4.81l-9.54,27.4C4.33,37.11,2.45,41.1,0,43.93c6.39-1.08,11.33-1.84,15.9-2.55
			c2.48-0.38,4.52-1.36,6.64-4.01c-1,1.23-2.45,1.85-3.84,2.09c-1.41,0.24-2.71,0.41-5.64,0.83C9.26,40.85,3.61,41.78,3.61,41.78z"
			/>
		<path style="fill:#00AEEF;" d="M27.18,38.37c1.72-2.19,2.64-4.75,3.63-7.64l2.11-6.26c-1.6,0.07-3.63,0.14-5.41,0.22l-0.53,1.52
			c1.18-0.05,2.44-0.09,3.48-0.13c0,0-1.18,3.54-1.72,5.1c-1.17,3.37-2.8,6.57-4.96,9.08c6.44-0.83,11.59-1.42,15.88-1.9
			c3.75-0.43,6.76-0.71,11.62-1.18c3.75-0.37,5.21-1.95,6.59-3.8c-1.34,1.53-3.06,2.03-5.24,2.24c-4.05,0.38-8.99,0.86-11.91,1.19
			C35.02,37.43,27.18,38.37,27.18,38.37z"/>
		<path style="fill:#00AEEF;" d="M35.14,12.28c0.66-0.01,1.31-0.01,1.9-0.02l2.49-7.5c0.96-2.88,2.42-3.76,3.42-4.2
			c-3.17,1.39-4.6,2.12-5.48,4.72L35.14,12.28z"/>
		<path style="fill:#00AEEF;" d="M58.92,5.75c-0.28,0.42-3.45,5.26-6.57,9.9l-1.92,5.74c5.04-7.41,10.74-15.92,11.16-16.54
			c1.16-1.72,2.31-2.6,3.48-3.03C63.53,2.42,60.53,3.37,58.92,5.75z"/>
	</g>
	<path style="fill:#004990;" d="M145.66,12.64c-0.14-0.05-0.83-0.32-0.96-0.37c1.04,0.05,3.42,0.31,5.12,0.56
		c2.87,0.41,4.71-0.09,5.91-2.71c1.04-2.28,3.29-7.2,3.29-7.2c-4.33-1.04-9.65-1.85-14.01-1.85h-0.46
		c-8.41,0-15.64,3.54-15.84,11.63c-0.08,3.42,1.2,7.81,8.62,10.8c0.33,0.13,1.12,0.45,1.56,0.61c-1.07,0.22-2.79,0.08-6.39-0.23
		c-3.38-0.29-8.4-0.66-12.65-0.85c0.67-2.09,4.84-14.92,4.84-14.92c1.18-3.71,1.86-4.95,3.35-6.67h-12.7c-3.1,0-4.6,1.62-5.4,4.07
		l-5.55,16.98c0,0-5.81,0.02-7.2-0.01l4.66-14.56c1.09-3.38,1.66-4.69,3.21-6.48H92.48c-3.29,0.01-4.58,1.6-5.42,4.23l-4.71,14.76
		c-0.05-1.43-0.47-13.33-0.47-13.33c-0.07-2.26,0.18-3.82,1.16-5.66H68.04c-2.36,0-4.34,0.31-6.45,3.43
		c-0.42,0.63-6.13,9.14-11.16,16.54L55.14,7.3c1.15-3.44,2.49-5.58,4.05-7.2H45.04c-2.38,0.17-4.37,1.23-5.51,4.65l-2.49,7.5
		c-1.56,0.01-3.43,0.03-5.18,0.05l1.67-4.93c1.29-3.71,2.6-5.68,4.14-7.28h-14.5c-2.7,0.2-4.58,1.66-5.69,4.89L7.41,33.97
		c-0.91,2.65-1.81,5.23-3.8,7.82c0,0,5.6-0.94,9.4-1.48c3.1-0.44,4.27-0.58,5.69-0.84c3.01-0.55,4.44-2.26,5.45-5.15l3.35-9.62
		c1.78-0.08,3.81-0.15,5.41-0.22l-2.11,6.26c-0.99,2.89-1.91,5.45-3.63,7.64c0,0,7.84-0.94,13.55-1.58c2.58-0.29,7.9-0.8,11.9-1.18
		c3.58-0.34,4.91-1.48,6.34-3.7c0.94-1.45,2.23-3.46,2.23-3.46c2.57-0.11,4.78-0.19,6.77-0.26c0,0.47,0.01,0.8,0.01,0.97
		c0,1.85-0.37,3.77-1.04,5.37c0,0,7.42-0.39,14.36-0.55c4.68-0.11,14.78-0.22,21.81-0.08c4.58,0.09,16.3,0.6,19.97,0.86
		c2.98,0.21,10.08,1.04,14.9,1.04c12.67,0,17.04-5.8,17.04-12.39C155.02,16.96,150.02,14.35,145.66,12.64z"/>
	<g>
		<path style="fill:#FFFFFF;" d="M125.8,32.57c3.18,0.34,6.81,0.66,10.2,0.81c13.72,0.61,16.48-5.24,16.48-9.9
			c0-4.33-3.03-6.54-7.48-8.52c-2.83-1.25-4.22-2.05-4.22-3.19c0-1.2,1.39-1.8,4.01-1.8c1.11,0,3.11,0.19,4.99,0.44
			c2.27,0.31,3.1,0.17,3.9-1.59c0.62-1.37,1.95-4.27,1.95-4.27c-3.6-0.72-6.94-1.26-10.92-1.26c-7.98-0.05-13.55,3.39-13.55,9.3
			c-0.01,9.28,11.97,8.53,11.13,12.03c-0.29,1.23-1.64,1.71-4.95,1.69c-1.43-0.01-4.33-0.28-5.87-0.36
			c-1.71-0.09-2.64-0.02-3.23,1.27C127.77,28.27,125.8,32.57,125.8,32.57z"/>
		<path style="fill:#FFFFFF;" d="M94.8,24.74c-0.65,0-1.82,0.01-2.4,0.02c1.28-0.48,1.9-1.16,2.11-1.76
			c1.78-5.59,3.37-10.58,5.19-16.24c0.39-1.21,0.83-2.36,1.34-3.05c0,0-5.96,0-9.32,0c-1.19,0.02-1.83,0.96-2.28,2.38
			c-0.48,1.5-8.17,25.51-8.17,25.51c3.74-0.07,12.13-0.12,17.39-0.11c1.92,0.01,3.02-0.42,4.11-2.33c0.72-1.27,2.41-4.43,2.41-4.43
			C104.07,24.76,96.27,24.73,94.8,24.74z"/>
		<path style="fill:#FFFFFF;" d="M44.56,2.4c-1.22,0.08-2.04,1.01-2.66,2.86c-1.04,3.14-2.04,6.15-3.11,9.37
			c-2.96,0.03-6.7,0.06-10.36,0.12c1.12-3.22,1.95-5.57,3.06-8.76c0.53-1.53,1.16-2.8,1.81-3.59H22.67
			c-1.28,0.15-2.07,1.32-2.7,3.13c-1.08,3.12-9.18,26.4-10.34,29.74c-0.44,1.25-0.86,2.48-1.59,3.34c3.63-0.6,6.8-0.93,10.39-1.52
			c1.61-0.26,2.58-1.04,3.46-3.56c1.08-3.12,2.79-8,3.89-11.15c4.5-0.2,9.31-0.38,12.41-0.51c-1.44,0.73-2.16,1.08-2.56,2.27
			c-0.87,2.63-1.95,5.89-2.77,8.34c-0.39,1.17-0.82,2.21-1.38,2.99c3.59-0.42,6.74-0.77,10.08-1.15c1.43-0.21,2.29-0.8,3.14-3.35
			c2.75-8.31,5.51-16.58,8.26-24.88c0.46-1.38,1.2-2.92,1.83-3.68H44.56z"/>
		<path style="fill:#FFFFFF;" d="M115.03,25.05c1.27-0.41,1.97-1.02,2.18-1.68c1.86-5.79,3.53-10.8,5.39-16.62
			c0.41-1.29,0.86-2.38,1.34-3.05h-9.44c-1.06,0.05-1.78,0.97-2.21,2.3c-0.61,1.88-8.36,25.57-8.36,25.57
			c3.65,0.11,11.71,0.46,16.86,0.68c1.88,0.08,3.1-0.29,4.32-2.24c0.75-1.19,2.55-4.32,2.55-4.32
			C123.44,25.4,118.73,25.15,115.03,25.05z"/>
		<path style="fill:#FFFFFF;" d="M80.32,29.24c-0.21-6.87-0.57-15.5-0.85-22.02c0-0.02,0.01-0.02,0.01-0.04
			c-0.04-1.38,0.04-2.46,0.35-3.48H66.91c-1.19,0.05-2.05,0.58-3.4,2.59c-0.82,1.21-18.7,27.69-18.7,27.69
			c2-0.2,4.97-0.49,7.81-0.77c2-0.2,2.95-0.44,4.48-2.81c0.77-1.2,2.77-4.29,2.77-4.29c3.84-0.17,7.73-0.32,11.55-0.41
			c0.19,0,0.37-0.01,0.52-0.01l0,0c-1.01,0.61-1.57,1.03-1.58,1.71c0,0,0,1.44,0,1.74c0.01,1.64-0.36,2.86-0.36,2.86
			c2.62-0.12,6.01-0.27,8.31-0.33C79.98,31.6,80.36,30.44,80.32,29.24z M70.27,10l0.11,9.45c-2.29,0.05-4.06,0.11-6.32,0.19
			L70.27,10z"/>
	</g>
	<g>
		<path style="fill:#BCBEC0;" d="M142.28,24.63c-0.27,1.11-1.39,1.73-5.08,1.69c0.19,0,0.77,0.09,1.94,0.09
			c4.13,0,4.77-1.35,4.77-2.55c0-3.89-11.23-3.11-11.23-11.39c0-5.94,5.09-9.05,12.95-9.15c-0.31-0.01-0.61-0.01-0.92-0.01
			c-7.98-0.05-13.55,3.39-13.55,9.3C131.15,21.87,143.12,21.13,142.28,24.63z"/>
		<path style="fill:#BCBEC0;" d="M127.45,32.74c0,0,2.27-4.98,2.56-5.63c0.34-0.76,0.91-1.06,1.6-1.14
			c-0.36-0.03-0.96-0.03-1.17-0.03c-1.22,0.03-1.8,0.4-2.2,1.27c-0.46,1.02-2.44,5.35-2.44,5.35L127.45,32.74z"/>
		<g>
			<path style="fill:#BCBEC0;" d="M91.22,5.83c0.44-1.39,1.01-1.94,1.87-2.13H91.7c-1.17,0.03-1.81,0.93-2.27,2.38
				c-0.51,1.58-8.17,25.51-8.17,25.51c0.49-0.01,1.08-0.02,1.71-0.03C83.14,31.04,90.74,7.31,91.22,5.83z"/>
		</g>
		<g>
			<path style="fill:#BCBEC0;" d="M40.6,14.62c1.07-3.22,2.12-6.39,3.16-9.54c0.56-1.69,1.48-2.61,2.6-2.67h-1.8
				c-1.15,0.07-2.02,0.95-2.62,2.77c-1.04,3.14-2.07,6.25-3.14,9.46L40.6,14.62z"/>
			<path style="fill:#BCBEC0;" d="M22.67,2.4c-1.23,0.15-2.02,1.19-2.7,3.13c-1.08,3.12-9.18,26.4-10.34,29.74
				c-0.44,1.25-0.85,2.46-1.59,3.34c0.62-0.1,1.06-0.17,1.72-0.28c0.76-0.35,1.13-1.22,1.49-2.27c1.16-3.34,9.56-27.52,10.64-30.64
				c0.63-1.81,1.47-2.87,2.66-3.01H22.67z"/>
			<path style="fill:#BCBEC0;" d="M34.4,33.29c0.93-2.8,2.72-8.13,3.81-11.43c-1.49,0.74-2.18,1.11-2.56,2.26
				c-0.9,2.72-1.91,5.77-2.77,8.35c-0.39,1.17-0.79,2.16-1.38,2.99c0.6-0.07,1-0.12,1.64-0.2C33.64,34.95,34.04,34.36,34.4,33.29z"
				/>
		</g>
		<g>
			<path style="fill:#BCBEC0;" d="M105.61,31.64c0,0,7.84-23.96,8.45-25.83c0.42-1.28,1.04-1.94,1.9-2.1h-1.36
				c-1.18,0-1.85,0.92-2.31,2.3c-0.61,1.88-8.36,25.57-8.36,25.57L105.61,31.64z"/>
		</g>
		<g>
			<polyline style="fill:#BCBEC0;" points="70.38,19.45 71.95,19.42 71.8,7.61 70.27,10 70.38,19.45 			"/>
			<path style="fill:#BCBEC0;" d="M65.42,6.3c1.42-2.12,2.13-2.46,3.54-2.59h-2.03c-1.46,0.01-2.4,1.07-3.42,2.59
				c-0.82,1.21-18.7,27.69-18.7,27.69c0.51-0.05,1.36-0.13,2.05-0.2C48.35,31.57,64.64,7.46,65.42,6.3z"/>
			<path style="fill:#BCBEC0;" d="M71.66,31.93c0.1-0.3,0.31-1.38,0.3-2.78c0-0.3-0.02-3.44-0.02-3.44c-1,0.6-1.57,1.04-1.58,1.71
				c0,0,0,1.44,0,1.74c0.01,1.64-0.36,2.86-0.36,2.86C70.52,31.98,71.03,31.95,71.66,31.93z"/>
		</g>
	</g>
</g>
</svg>
