<?xml version="1.0" encoding="utf-8"?>
<!-- Generator: Adobe Illustrator 24.0.0, SVG Export Plug-In . SVG Version: 6.00 Build 0)  -->
<svg version="1.1" id="black" xmlns="http://www.w3.org/2000/svg" xmlns:xlink="http://www.w3.org/1999/xlink" x="0px" y="0px"
	 viewBox="0 0 210.99 25" style="enable-background:new 0 0 210.99 25;" xml:space="preserve" fill="#ec6707">
<g>
	<path class="st0" d="M-903.36,117.8h6.88v12.63c-3.76-1.56-8.45-4.46-11.04-8.15c-0.85-1.21-1.83-3.18-1.83-7.64
		C-908.43,116.61-905.99,117.8-903.36,117.8z M-901.53,114.54h5.86c1.63,0,2.44-0.82,2.44-0.82v16.57c3.7-1.59,8.2-4.43,10.71-8.01
		c0.85-1.21,1.83-3.18,1.83-7.64v-22.3h-12.54c0,3.14,0,12.93,0,13.07c0,0.82-0.49,1.31-1.3,1.31h-2.28c-0.82,0-1.3-0.48-1.3-1.31
		V92.34h-11.23v14.37C-909.35,111.39-908.84,114.54-901.53,114.54z M-912.62,89.07v25.57c0,4.19,0.75,7.13,2.42,9.52
		c3.8,5.43,10.99,9.03,15.18,10.26c4.19-1.23,11.38-4.83,15.18-10.26c1.67-2.39,2.42-5.32,2.42-9.52V89.07H-912.62z M-874.19,85.83
		v28.81c0,4.88-0.94,8.43-3,11.37c-4.48,6.41-12.87,10.55-17.83,11.75c-4.96-1.21-13.35-5.34-17.83-11.75c-2.06-2.94-3-6.49-3-11.37
		V85.83H-874.19z"/>
</g>
<g>
	<polygon class="st0" points="40.19,25 24.4,25 24.4,0.55 40.19,0.55 40.19,4.58 28.71,4.58 28.71,10.6 38.75,10.6 38.75,14.63 
		28.71,14.63 28.71,20.97 40.19,20.97 	"/>
	<polygon class="st0" points="117.69,25 117.69,0.55 113.58,0.55 113.38,1.23 103.34,16.94 103.34,0.55 99.03,0.55 99.03,25 
		103.14,25 103.34,24.32 113.34,8.58 113.34,25 	"/>
	<polygon class="st0" points="162.19,14.63 152.14,14.63 152.14,25 147.82,25 147.82,0.55 152.14,0.55 152.14,10.62 162.19,10.62 
		162.19,0.55 166.5,0.55 166.5,25 162.19,25 	"/>
	<polygon class="st0" points="88.99,4.56 78.94,4.56 78.94,25 74.62,25 74.62,0.55 93.29,0.55 93.29,25 88.99,25 	"/>
	<polygon class="st0" points="64.59,10.81 58.84,22.13 55.97,22.13 50.23,10.81 50.23,25 45.93,25 45.93,0.55 50.1,0.55 50.23,1.27 
		57.07,14.93 57.69,14.93 64.59,1.3 64.75,0.55 68.89,0.55 68.89,25 64.59,25 	"/>
	<polygon class="st0" points="203.81,25 199.5,25 199.5,4.58 192.33,4.58 192.33,0.55 210.99,0.55 210.99,4.58 203.81,4.58 	"/>
	<path class="st0" d="M14.35,0.55v10.07c-0.61,0.33-2.6,1.73-5.62,1.73c-2.23,0-4.43-0.83-4.43-4.6V0.55H0v7.19
		c0,5.12,3.25,8.63,8.61,8.63c2.12,0,4.33-0.71,5.74-1.44V25h4.3V0.55H14.35z"/>
	<path class="st0" d="M170.11,25h4.72l2.2-5.75h8.87l2.2,5.75h4.72l-9.31-24.45h-4.1L170.11,25z M178.4,15.22l3-8.66h0.13l3,8.66
		H178.4z"/>
	<path class="st0" d="M141.19,4.39C139.42,1.62,136.22,0,132.75,0c-3.47,0-6.67,1.62-8.43,4.39c-0.92,1.44-1.44,3.13-1.44,5.75v5.26
		c0,2.61,0.52,4.31,1.44,5.75c1.76,2.77,4.96,4.39,8.43,4.39c3.47,0,6.67-1.62,8.43-4.39c0.92-1.44,1.44-3.13,1.44-5.75v-5.26
		C142.63,7.52,142.1,5.83,141.19,4.39z M138.34,15.75c0,1.5-0.34,2.61-0.91,3.4c-1.03,1.45-2.84,2.34-4.67,2.34
		c-1.83,0-3.64-0.9-4.67-2.34c-0.57-0.79-0.91-1.9-0.91-3.4V9.78c0-1.5,0.34-2.61,0.91-3.4c1.04-1.45,2.84-2.34,4.67-2.34
		c1.83,0,3.64,0.9,4.67,2.34c0.57,0.79,0.91,1.9,0.91,3.4V15.75z"/>
</g>
</svg>
