<?xml version="1.0" encoding="utf-8"?>
<!-- Generator: Adobe Illustrator 24.0.0, SVG Export Plug-In . SVG Version: 6.00 Build 0)  -->
<svg version="1.1" id="black" xmlns="http://www.w3.org/2000/svg" xmlns:xlink="http://www.w3.org/1999/xlink" x="0px" y="0px"
	 viewBox="0 0 262.37 54.04" style="enable-background:new 0 0 262.37 54.04;" xml:space="preserve" fill="#ec6707">

<g>
	<g>
		<path class="st0" d="M12.49,34.07h6.88V46.7c-3.76-1.56-8.45-4.46-11.04-8.15c-0.85-1.21-1.83-3.18-1.83-7.64
			C7.42,32.88,9.86,34.07,12.49,34.07z M14.32,30.81h5.86c1.63,0,2.44-0.82,2.44-0.82v16.57c3.7-1.59,8.2-4.43,10.71-8.01
			c0.85-1.21,1.83-3.18,1.83-7.64V8.61H22.63c0,3.14,0,12.93,0,13.07c0,0.82-0.49,1.31-1.3,1.31h-2.28c-0.82,0-1.3-0.48-1.3-1.31
			V8.61H6.51v14.37C6.51,27.65,7.01,30.81,14.32,30.81z M3.23,5.34v25.57c0,4.19,0.75,7.13,2.42,9.52
			c3.8,5.43,10.99,9.03,15.18,10.26c4.19-1.23,11.38-4.83,15.18-10.26c1.67-2.39,2.42-5.32,2.42-9.52V5.34H3.23z M41.67,2.1v28.81
			c0,4.88-0.94,8.43-3,11.37c-4.48,6.41-12.87,10.55-17.83,11.75C15.88,52.83,7.49,48.69,3,42.28c-2.06-2.94-3-6.49-3-11.37V2.1
			H41.67z"/>
	</g>
	<g>
		<polygon class="st0" points="91.57,38.27 75.79,38.27 75.79,13.82 91.57,13.82 91.57,17.85 80.09,17.85 80.09,23.87 90.14,23.87 
			90.14,27.9 80.09,27.9 80.09,34.24 91.57,34.24 		"/>
		<polygon class="st0" points="169.07,38.27 169.07,13.82 164.96,13.82 164.77,14.5 154.72,30.2 154.72,13.82 150.42,13.82 
			150.42,38.27 154.53,38.27 154.72,37.59 164.72,21.85 164.72,38.27 		"/>
		<polygon class="st0" points="213.58,27.9 203.53,27.9 203.53,38.27 199.21,38.27 199.21,13.82 203.53,13.82 203.53,23.89 
			213.58,23.89 213.58,13.82 217.88,13.82 217.88,38.27 213.58,38.27 		"/>
		<polygon class="st0" points="140.37,17.83 130.32,17.83 130.32,38.27 126,38.27 126,13.82 144.67,13.82 144.67,38.27 
			140.37,38.27 		"/>
		<polygon class="st0" points="115.97,24.07 110.23,35.39 107.36,35.39 101.62,24.07 101.62,38.27 97.31,38.27 97.31,13.82 
			101.48,13.82 101.62,14.54 108.46,28.2 109.08,28.2 115.97,14.56 116.13,13.82 120.28,13.82 120.28,38.27 115.97,38.27 		"/>
		<polygon class="st0" points="255.2,38.27 250.89,38.27 250.89,17.85 243.71,17.85 243.71,13.82 262.37,13.82 262.37,17.85 
			255.2,17.85 		"/>
		<path class="st0" d="M65.74,13.82v10.07c-0.61,0.33-2.6,1.73-5.62,1.73c-2.23,0-4.43-0.83-4.43-4.6v-7.19h-4.31v7.19
			c0,5.12,3.25,8.63,8.61,8.63c2.12,0,4.33-0.71,5.74-1.44v10.07h4.3V13.82H65.74z"/>
		<path class="st0" d="M221.49,38.27h4.72l2.2-5.75h8.87l2.2,5.75h4.72l-9.31-24.45h-4.1L221.49,38.27z M229.78,28.49l3-8.66h0.13
			l3,8.66H229.78z"/>
		<path class="st0" d="M192.57,17.65c-1.76-2.77-4.96-4.39-8.43-4.39c-3.47,0-6.67,1.62-8.43,4.39c-0.92,1.44-1.44,3.13-1.44,5.75
			v5.26c0,2.61,0.52,4.31,1.44,5.75c1.76,2.77,4.96,4.39,8.43,4.39c3.47,0,6.67-1.62,8.43-4.39c0.92-1.44,1.44-3.13,1.44-5.75V23.4
			C194.01,20.79,193.49,19.1,192.57,17.65z M189.72,29.02c0,1.5-0.34,2.61-0.91,3.4c-1.03,1.45-2.84,2.34-4.67,2.34
			c-1.83,0-3.64-0.9-4.67-2.34c-0.57-0.79-0.91-1.9-0.91-3.4v-5.97c0-1.5,0.34-2.61,0.91-3.4c1.04-1.45,2.84-2.34,4.67-2.34
			c1.83,0,3.64,0.9,4.67,2.34c0.57,0.79,0.91,1.9,0.91,3.4V29.02z"/>
	</g>
</g>
</svg>
