<?xml version="1.0" encoding="utf-8"?>
<!-- Generator: Adobe Illustrator 24.0.0, SVG Export Plug-In . SVG Version: 6.00 Build 0)  -->
<svg version="1.1" id="black" xmlns="http://www.w3.org/2000/svg" xmlns:xlink="http://www.w3.org/1999/xlink" x="0px" y="0px"
	 viewBox="0 0 41.67 51.93" style="enable-background:new 0 0 41.67 51.93;" xml:space="preserve" fill="#ec6707">
<g>
	<path class="st0" d="M12.49,31.97h6.88V44.6c-3.76-1.56-8.45-4.46-11.04-8.15c-0.85-1.21-1.83-3.18-1.83-7.64
		C7.42,30.78,9.86,31.97,12.49,31.97z M14.32,28.71h5.86c1.63,0,2.44-0.82,2.44-0.82v16.57c3.7-1.59,8.2-4.43,10.71-8.01
		c0.85-1.21,1.83-3.18,1.83-7.64V6.51H22.63c0,3.14,0,12.93,0,13.07c0,0.82-0.49,1.31-1.3,1.31h-2.28c-0.82,0-1.3-0.48-1.3-1.31
		V6.51H6.51v14.37C6.51,25.55,7.01,28.71,14.32,28.71z M3.23,3.23v25.57c0,4.19,0.75,7.13,2.42,9.52
		c3.8,5.43,10.99,9.03,15.18,10.26c4.19-1.23,11.38-4.83,15.18-10.26c1.67-2.39,2.42-5.32,2.42-9.52V3.23H3.23z M41.67,0v28.81
		c0,4.88-0.94,8.43-3,11.37c-4.48,6.41-12.87,10.55-17.83,11.75C15.88,50.73,7.49,46.59,3,40.18c-2.06-2.94-3-6.49-3-11.37V0H41.67z
		"/>
</g>
<g>
	<polygon class="st0" points="-811.39,234.08 -827.18,234.08 -827.18,209.63 -811.39,209.63 -811.39,213.66 -822.87,213.66 
		-822.87,219.68 -812.83,219.68 -812.83,223.71 -822.87,223.71 -822.87,230.05 -811.39,230.05 	"/>
	<polygon class="st0" points="-733.89,234.08 -733.89,209.63 -738,209.63 -738.19,210.31 -748.24,226.01 -748.24,209.63 
		-752.54,209.63 -752.54,234.08 -748.44,234.08 -748.24,233.4 -738.24,217.66 -738.24,234.08 	"/>
	<polygon class="st0" points="-689.38,223.71 -699.43,223.71 -699.43,234.08 -703.76,234.08 -703.76,209.63 -699.43,209.63 
		-699.43,219.7 -689.38,219.7 -689.38,209.63 -685.08,209.63 -685.08,234.08 -689.38,234.08 	"/>
	<polygon class="st0" points="-762.59,213.64 -772.64,213.64 -772.64,234.08 -776.96,234.08 -776.96,209.63 -758.29,209.63 
		-758.29,234.08 -762.59,234.08 	"/>
	<polygon class="st0" points="-786.99,219.88 -792.73,231.2 -795.6,231.2 -801.34,219.88 -801.34,234.08 -805.65,234.08 
		-805.65,209.63 -801.48,209.63 -801.34,210.35 -794.5,224.01 -793.89,224.01 -786.99,210.37 -786.83,209.63 -782.68,209.63 
		-782.68,234.08 -786.99,234.08 	"/>
	<polygon class="st0" points="-647.77,234.08 -652.07,234.08 -652.07,213.66 -659.25,213.66 -659.25,209.63 -640.59,209.63 
		-640.59,213.66 -647.77,213.66 	"/>
	<path class="st0" d="M-837.22,209.63v10.07c-0.61,0.33-2.6,1.73-5.62,1.73c-2.23,0-4.43-0.83-4.43-4.6v-7.19h-4.31v7.19
		c0,5.12,3.25,8.63,8.61,8.63c2.12,0,4.33-0.71,5.74-1.44v10.07h4.3v-24.45H-837.22z"/>
	<path class="st0" d="M-681.47,234.08h4.72l2.2-5.75h8.87l2.2,5.75h4.72l-9.31-24.45h-4.1L-681.47,234.08z M-673.18,224.3l3-8.66
		h0.13l3,8.66H-673.18z"/>
	<path class="st0" d="M-710.39,213.46c-1.76-2.77-4.96-4.39-8.43-4.39c-3.47,0-6.67,1.62-8.43,4.39c-0.92,1.44-1.44,3.13-1.44,5.75
		v5.26c0,2.61,0.52,4.31,1.44,5.75c1.76,2.77,4.96,4.39,8.43,4.39c3.47,0,6.67-1.62,8.43-4.39c0.92-1.44,1.44-3.13,1.44-5.75v-5.26
		C-708.95,216.6-709.47,214.91-710.39,213.46z M-713.24,224.83c0,1.5-0.34,2.61-0.91,3.4c-1.03,1.45-2.84,2.34-4.67,2.34
		c-1.83,0-3.64-0.9-4.67-2.34c-0.57-0.79-0.91-1.9-0.91-3.4v-5.97c0-1.5,0.34-2.61,0.91-3.4c1.04-1.45,2.84-2.34,4.67-2.34
		c1.83,0,3.64,0.9,4.67,2.34c0.57,0.79,0.91,1.9,0.91,3.4V224.83z"/>
</g>
</svg>
