 <?xml version="1.0" encoding="utf-8"?>
<!-- Generator: Adobe Illustrator 24.0.0, SVG Export Plug-In . SVG Version: 6.00 Build 0)  -->
<svg version="1.1" id="_x2014_ÎÓÈ_x5F_1" xmlns="http://www.w3.org/2000/svg" xmlns:xlink="http://www.w3.org/1999/xlink"
	 x="0px" y="0px" viewBox="0 0 322.28 302.38" style="enable-background:new 0 0 322.28 302.38;" xml:space="preserve" fill="#4d2483">
<path class="st0" d="M316.28,76.09H215.75c3.2-0.73,6.49-1.52,9.81-2.39c32.27-8.45,49.92-18.95,53.95-32.11
	c2.87-9.35-1.21-18.89-12.11-28.36C254.33,1.88,240.86-2.2,227.38,1.12c-26.09,6.41-43.79,39.34-50.11,52.97
	c-3.46-2.44-7.66-3.88-12.21-3.88h-7.86c-4.22,0-8.14,1.25-11.45,3.38c-6.52-13.92-24.1-46.12-49.87-52.46
	C82.41-2.19,68.95,1.88,55.88,13.23c-10.86,9.43-14.95,18.94-12.14,28.26c3.79,12.59,20,22.73,49.56,31.01
	c4.8,1.34,9.59,2.54,14.2,3.58H6c-3.31,0-6,2.69-6,6v56.06c0,3.31,2.69,6,6,6h18.8v152.23c0,3.31,2.69,6,6,6h104.76h51.15h104.77
	c3.31,0,6-2.69,6-6V144.15h18.8c3.31,0,6-2.69,6-6V82.09C322.28,78.78,319.59,76.09,316.28,76.09z M192.49,132.15h-62.7V88.09h5.77
	h6.4h38.36h6.39h5.78V132.15z M230.25,12.77c9.61-2.36,19.19,0.75,29.28,9.52c6.99,6.07,9.85,11.38,8.51,15.78
	c-1.21,3.95-8.06,14.2-45.41,23.99c-8.78,2.3-17.46,4.1-24.7,5.42c12.28-12.55,37.92-34.25,53.21-28.03
	c3.07,1.25,6.57-0.23,7.82-3.3c1.25-3.07-0.23-6.57-3.3-7.82c-25.44-10.35-58.83,22.63-68.55,33.09
	C193.27,47.26,209.86,17.78,230.25,12.77z M157.21,62.2h7.86c5.1,0,9.25,4.15,9.25,9.25v4.64h-26.36v-4.64
	C147.96,66.35,152.11,62.2,157.21,62.2z M55.23,38.03c-1.32-4.39,1.54-9.68,8.52-15.74c10.09-8.76,19.66-11.88,29.27-9.52
	c18.89,4.63,33.41,28.9,40.17,42.43C118.1,42.47,92.46,25.15,72.92,34.17c-3.01,1.39-4.32,4.96-2.93,7.96
	c1.39,3.01,4.95,4.32,7.96,2.93c14.07-6.5,38.4,11.18,51.95,23.26C93.82,62.26,59.05,50.72,55.23,38.03z M12,88.09h105.79v44.06
	H30.94c-0.05,0-0.09-0.01-0.14-0.01c-0.05,0-0.09,0.01-0.14,0.01H12V88.09z M36.8,144.15h86.99h5.77v146.23H36.8V144.15z
	 M141.56,290.38V144.15h39.15v146.23H141.56z M285.48,290.38h-92.77V144.15h5.78h86.99V290.38z M310.28,132.15h-18.66
	c-0.05,0-0.09-0.01-0.14-0.01c-0.05,0-0.09,0.01-0.13,0.01h-86.86V88.09h105.79V132.15z"/>
</svg>
