<?xml version="1.0" encoding="utf-8"?>
<!-- Generator: Adobe Illustrator 24.0.0, SVG Export Plug-In . SVG Version: 6.00 Build 0)  -->
<svg version="1.1" id="wreaths" xmlns="http://www.w3.org/2000/svg" xmlns:xlink="http://www.w3.org/1999/xlink" x="0px" y="0px"
	 viewBox="0 0 305.16 120" style="enable-background:new 0 0 305.16 120;" xml:space="preserve">
<g>
	<path style="fill:#9d96b8;" d="M46.54,114.21c0.21-2.05-0.19-6.74-0.83-8.89c-2.29-7.79-5.8-11.31-5.8-11.31s-2.72,2.19,0.49,12.87
		c0.41,1.35,1.83,4.01,3.21,5.97c-3.71-1.85-7.25-4.06-10.53-6.62c0.75-1.7,1.61-6.65,1.53-8.99c-0.27-8.06-2.82-12.37-2.82-12.37
		s-3.21,1.37-2.75,12.43c0.06,1.52,0.91,4.86,1.86,7.14c-3.3-2.82-6.33-6.01-9-9.54c1.11-1.17,3.38-6,3.91-8.37
		c1.76-7.78,0.35-12.58,0.35-12.58s-3.47,0.45-5.8,11.15c-0.34,1.57-0.33,5.33,0.1,7.79c-1.98-2.85-3.74-5.9-5.25-9.15
		c-0.39-0.83-0.75-1.67-1.09-2.52c1.29-0.77,4.64-5.05,5.68-7.25c3.36-7.13,2.97-12.08,2.97-12.08s-3.52-0.34-8.05,9.48
		c-0.65,1.42-1.42,4.99-1.53,7.45c-1.56-4.3-2.62-8.71-3.19-13.13c1.39-0.31,5.84-3.55,7.44-5.4c5.09-5.9,5.98-10.74,5.98-10.74
		s-3.34-1.28-10.27,6.88c-1.01,1.19-2.7,4.46-3.42,6.79c-0.39-4.43-0.32-8.87,0.22-13.24c1.32,0.05,6.48-2.35,8.42-3.89
		c6.08-4.8,7.79-9.35,7.79-9.35s-3.11-1.86-11.4,4.8c-1.16,0.93-3.25,3.59-4.4,5.68c0.76-4.53,2-8.96,3.71-13.22
		c1.58,0.26,6.57-0.48,8.67-1.3c6.96-2.72,9.76-6.41,9.76-6.41s-2.42-2.56-11.94,1.26c-1.24,0.5-3.66,2.16-5.3,3.68
		c1.56-3.43,3.43-6.72,5.59-9.84c1.03,0.45,6.24,0,8.37-0.7c6.57-2.15,9.32-5.35,9.32-5.35s-2.14-2.43-11.14,0.59
		c-1.02,0.34-2.9,1.44-4.42,2.58c0.78-1,1.59-1.98,2.43-2.93l1.35-2.04c-1.12,1.17-2.19,2.37-3.22,3.61c1-1.55,2.12-3.63,3.09-6.34
		c0.88-2.45,1.63-8.77,0.98-9.19c-1.1-0.71-5.09,4.92-5.88,7.07c-3.54,9.61-1.1,12.01-1.1,12.01s0.1-0.09,0.27-0.24
		c-0.11,0.15-0.18,0.29-0.22,0.42c-1.82,2.55-3.44,5.22-4.86,7.98c0.5-1.74,0.94-3.9,1.16-6.49c0.24-2.79-0.68-9.55-1.46-9.8
		c-1.3-0.42-3.86,6.54-4.09,9c-0.9,9.53,1.33,12.12,1.94,12.64c-1.41,3.49-2.52,7.09-3.3,10.77c0.13-2.04,0.08-4.69-0.46-7.91
		c-0.47-2.79-3.04-9.13-3.86-9.17c-1.35-0.06-2.05,7.42-1.65,9.87c1.66,10.34,4.8,11.75,5.16,11.88c-0.42,3.07-0.61,6.18-0.57,9.29
		c-0.43-1.64-1.06-3.53-1.98-5.62c-1.14-2.59-5.2-8.1-5.99-7.92c-1.31,0.3-0.1,7.78,0.9,10.07c3.52,8.11,6.45,9.78,7.52,10.12
		c0.34,2.78,0.88,5.55,1.61,8.3c-0.73-1.22-1.63-2.55-2.73-3.95c-1.75-2.22-7.01-6.51-7.71-6.12c-1.18,0.64,1.86,7.62,3.38,9.59
		c5.07,6.56,8.23,7.69,9.51,7.84c0.39,0.96,0.79,1.92,1.24,2.87c0.73,1.57,1.51,3.08,2.34,4.56c-0.95-0.92-2.05-1.88-3.33-2.86
		c-2.23-1.7-8.33-4.48-8.91-3.91c-0.96,0.94,3.69,6.93,5.64,8.45c6.36,4.93,9.65,5.29,10.97,5.12c1.6,2.18,3.32,4.23,5.15,6.15
		c-1.08-0.6-2.31-1.2-3.68-1.78c-2.56-1.07-9.09-2.14-9.5-1.44c-0.69,1.17,5.27,5.78,7.52,6.74c7.25,3.08,10.5,2.59,11.75,2.08
		c2.09,1.69,4.28,3.23,6.54,4.63c-1.2-0.3-2.53-0.57-4.01-0.76c-2.71-0.36-9.23,0.34-9.45,1.14c-0.36,1.33,6.49,4.23,8.88,4.56
		c7.77,1.08,10.74-0.3,11.78-1.13c4.38,1.96,8.98,3.42,13.69,4.34c-0.24-0.39-0.45-1.4-0.67-1.8
		C54.76,117.3,50.56,115.96,46.54,114.21z"/>
	<path style="fill:#9d96b8;" d="M38.22,6.97c1.73-1.52,4.94-6.12,4.58-6.74c-0.6-1.03-6.16,1.6-7.69,2.93
		c-6.84,5.94-5.85,8.88-5.85,8.88S33.27,11.34,38.22,6.97z"/>
</g>
<g>
	<path style="fill:#9d96b8;" d="M292.01,81.25c1.28-0.15,4.43-1.29,9.51-7.84c1.52-1.97,4.56-8.95,3.38-9.59
		c-0.71-0.39-5.97,3.9-7.71,6.12c-1.1,1.4-2,2.73-2.73,3.95c0.73-2.75,1.27-5.52,1.61-8.3c1.07-0.34,4-2.01,7.52-10.12
		c0.99-2.29,2.2-9.78,0.9-10.07c-0.78-0.18-4.84,5.32-5.99,7.92c-0.92,2.09-1.55,3.98-1.98,5.62c0.04-3.12-0.15-6.22-0.57-9.29
		c0.36-0.13,3.5-1.54,5.16-11.88c0.39-2.46-0.3-9.94-1.65-9.87c-0.81,0.04-3.39,6.39-3.85,9.17c-0.54,3.22-0.59,5.87-0.46,7.91
		c-0.78-3.67-1.89-7.28-3.3-10.77c0.6-0.52,2.84-3.12,1.94-12.64c-0.23-2.45-2.79-9.42-4.09-9c-0.78,0.25-1.7,7.01-1.46,9.8
		c0.23,2.59,0.67,4.75,1.16,6.49c-1.42-2.76-3.04-5.43-4.86-7.98c-0.04-0.13-0.11-0.27-0.22-0.42c0.17,0.16,0.27,0.24,0.27,0.24
		s2.45-2.39-1.1-12.01c-0.79-2.15-4.79-7.78-5.88-7.07c-0.66,0.42,0.09,6.74,0.98,9.19c0.98,2.71,2.09,4.79,3.09,6.34
		c-1.02-1.24-2.1-2.44-3.22-3.61l1.35,2.04c0.84,0.95,1.65,1.94,2.43,2.93c-1.52-1.14-3.39-2.24-4.42-2.58
		c-8.99-3.01-11.14-0.59-11.14-0.59s2.75,3.21,9.32,5.35c2.13,0.7,7.33,1.15,8.37,0.7c2.16,3.11,4.03,6.41,5.59,9.84
		c-1.65-1.52-4.06-3.18-5.3-3.68c-9.53-3.81-11.94-1.26-11.94-1.26s2.8,3.68,9.76,6.41c2.1,0.82,7.08,1.56,8.67,1.3
		c1.7,4.26,2.95,8.7,3.71,13.22c-1.16-2.1-3.25-4.75-4.4-5.68c-8.29-6.66-11.4-4.8-11.4-4.8s1.71,4.54,7.79,9.35
		c1.94,1.54,7.1,3.94,8.42,3.89c0.54,4.37,0.61,8.81,0.22,13.24c-0.72-2.33-2.4-5.6-3.42-6.79c-6.93-8.16-10.27-6.88-10.27-6.88
		s0.89,4.83,5.98,10.74c1.6,1.85,6.05,5.09,7.44,5.4c-0.57,4.43-1.63,8.83-3.19,13.13c-0.11-2.46-0.87-6.03-1.53-7.45
		c-4.53-9.82-8.05-9.48-8.05-9.48s-0.39,4.95,2.97,12.08c1.04,2.2,4.39,6.48,5.68,7.25c-0.35,0.84-0.71,1.68-1.09,2.52
		c-1.51,3.25-3.27,6.3-5.25,9.15c0.43-2.45,0.44-6.22,0.1-7.79c-2.33-10.71-5.8-11.15-5.8-11.15s-1.41,4.8,0.35,12.58
		c0.53,2.36,2.8,7.19,3.91,8.37c-2.67,3.53-5.7,6.72-9,9.54c0.95-2.29,1.8-5.62,1.86-7.14c0.46-11.07-2.75-12.43-2.75-12.43
		s-2.55,4.31-2.82,12.37c-0.08,2.33,0.78,7.29,1.53,8.99c-3.29,2.56-6.82,4.77-10.53,6.62c1.38-1.96,2.8-4.62,3.21-5.97
		c3.21-10.68,0.49-12.87,0.49-12.87s-3.52,3.52-5.8,11.31c-0.63,2.15-1.04,6.84-0.83,8.89c-4.02,1.75-8.22,3.09-12.54,3.99
		c-0.22,0.4-0.42,1.42-0.67,1.8c4.71-0.92,9.31-2.37,13.69-4.34c1.04,0.83,4.01,2.21,11.78,1.13c2.39-0.33,9.24-3.23,8.88-4.56
		c-0.22-0.8-6.73-1.5-9.45-1.14c-1.48,0.19-2.81,0.46-4.01,0.76c2.26-1.39,4.45-2.94,6.54-4.63c1.25,0.51,4.5,1,11.75-2.08
		c2.25-0.96,8.2-5.56,7.52-6.74c-0.41-0.71-6.95,0.37-9.5,1.44c-1.37,0.57-2.6,1.18-3.68,1.78c1.82-1.92,3.54-3.97,5.15-6.15
		c1.32,0.17,4.62-0.19,10.97-5.12c1.95-1.51,6.61-7.51,5.64-8.45c-0.58-0.56-6.68,2.21-8.91,3.91c-1.28,0.98-2.38,1.94-3.33,2.86
		c0.83-1.47,1.61-2.99,2.34-4.56C291.21,83.17,291.62,82.21,292.01,81.25z"/>
	<path style="fill:#9d96b8;" d="M266.94,6.97c4.95,4.36,8.95,5.07,8.95,5.07s1-2.94-5.85-8.88c-1.53-1.33-7.09-3.96-7.69-2.93
		C262,0.85,265.21,5.45,266.94,6.97z"/>
</g>
</svg>
