<?xml version="1.0" encoding="utf-8"?>
<!-- Generator: Adobe Illustrator 24.0.0, SVG Export Plug-In . SVG Version: 6.00 Build 0)  -->
<svg version="1.1" id="Layer_1" xmlns="http://www.w3.org/2000/svg" xmlns:xlink="http://www.w3.org/1999/xlink" x="0px" y="0px"
	 viewBox="0 0 261.79 107.43" style="enable-background:new 0 0 261.79 107.43;" xml:space="preserve" fill="#4d2483">
<path class="st0" d="M250.31,83.12c6.33,0,11.49-5.15,11.49-11.67c0-6.34-5.15-11.49-11.49-11.49h-0.27V16.43
	c0-8.44-6.87-15.31-15.31-15.31H201.6c-8.45,0-15.31,6.87-15.31,15.31v43.54h-0.27c-6.33,0-11.49,5.15-11.49,11.67
	c0,6.34,5.16,11.49,11.49,11.49h29.7v19.41h-82.37V83.12h29.7c6.34,0,11.49-5.15,11.49-11.67c0-6.34-5.16-11.49-11.49-11.49h-0.27
	V16.43c0-8.44-6.87-15.31-15.31-15.31h-33.12c-8.44,0-15.31,6.87-15.31,15.31v43.54h-0.27c-6.33,0-11.49,5.15-11.49,11.67
	c0,6.34,5.15,11.49,11.49,11.49h29.7v19.41H46.08V83.12h29.7c6.33,0,11.49-5.15,11.49-11.67c0-6.34-5.15-11.49-11.49-11.49H75.5
	V16.43c0-8.44-6.87-15.31-15.31-15.31H27.07c-8.44,0-15.31,6.87-15.31,15.31v43.54h-0.27C5.15,59.96,0,65.12,0,71.64
	c0,6.34,5.15,11.49,11.49,11.49h29.7v19.41H4.87c-1.34,0-2.42,1.09-2.42,2.42V105c0,1.34,1.08,2.42,2.42,2.42h252.05
	c1.34,0,2.42-1.08,2.42-2.42v-0.05c0-1.34-1.09-2.42-2.42-2.42h-36.31V83.12H250.31z M103.92,16.43c0-5.74,4.67-10.42,10.42-10.42
	h33.12c5.74,0,10.42,4.67,10.42,10.42v43.54h-53.95V16.43z M98.75,78.23c-3.63,0-6.59-2.96-6.59-6.77c0-3.64,2.96-6.59,6.59-6.59
	h0.27h63.75h0.27c3.64,0,6.59,2.96,6.59,6.78c0,3.63-2.96,6.59-6.59,6.59H98.75z M16.66,16.43c0-5.74,4.67-10.42,10.42-10.42h33.12
	c5.74,0,10.42,4.67,10.42,10.42v43.54H16.66V16.43z M11.49,78.23c-3.63,0-6.59-2.96-6.59-6.77c0-3.64,2.96-6.59,6.59-6.59h0.27H75.5
	h0.27c3.63,0,6.59,2.96,6.59,6.78c0,3.63-2.96,6.59-6.59,6.59H11.49z M191.18,16.43c0-5.74,4.68-10.42,10.42-10.42h33.12
	c5.74,0,10.41,4.67,10.41,10.42v43.54h-53.95V16.43z M186.02,78.23c-3.63,0-6.59-2.96-6.59-6.77c0-3.64,2.96-6.59,6.59-6.59h0.27
	h63.74h0.27c3.63,0,6.59,2.96,6.59,6.78c0,3.63-2.96,6.59-6.59,6.59H186.02z"/>
</svg>
