<?xml version="1.0" encoding="utf-8"?>
<!-- Generator: Adobe Illustrator 24.0.0, SVG Export Plug-In . SVG Version: 6.00 Build 0)  -->
<svg version="1.1" id="Layer_2" xmlns="http://www.w3.org/2000/svg" xmlns:xlink="http://www.w3.org/1999/xlink" x="0px" y="0px"
	 viewBox="0 0 92.67 108.75" style="enable-background:new 0 0 92.67 108.75;" xml:space="preserve" fill="#4d2483">
<path class="st0" d="M42.55,56.86l-3.07,9.36l-9.85,0c0,0,0,0,0,0c-1.73,0-3.27,1.11-3.8,2.76c-0.54,1.65,0.04,3.45,1.44,4.47
	l7.95,5.81l-3.05,9.37c-0.54,1.65,0.05,3.45,1.45,4.47c0.7,0.51,1.53,0.77,2.36,0.77c0.82,0,1.64-0.25,2.34-0.76l7.98-5.77
	l7.97,5.79c0.7,0.51,1.53,0.77,2.35,0.77c0.82,0,1.65-0.25,2.35-0.76c1.4-1.02,1.99-2.82,1.46-4.47l-3.02-9.38l7.98-5.82
	c1.4-1.02,1.98-2.82,1.45-4.47c-0.54-1.65-2.07-2.76-3.8-2.76l-9.84,0l-3.04-9.36c-0.53-1.65-2.07-2.76-3.8-2.77c0,0,0,0-0.01,0
	C44.63,54.11,43.09,55.22,42.55,56.86z M50.29,70.23l12.75,0l-10.32,7.52l3.91,12.14l-10.31-7.5l-10.33,7.47l3.94-12.12l-10.29-7.52
	l12.75,0.01l3.97-12.11L50.29,70.23z"/>
<path class="st0" d="M58.04,29.25h-23.4L53.63,0h-4.77l-2.53,3.89L43.81,0h-4.77l4.91,7.56l-12.2,18.78L5.63,0H0l30.4,29.78l0,0l0,0
	l-3.71,15.58c-9.11,6.27-15.1,16.77-15.1,28.64c0,19.16,15.59,34.75,34.75,34.75S81.08,93.16,81.08,74
	c0-11.87-5.99-22.37-15.1-28.64l-3.71-15.58l0,0l0,0L92.67,0h-5.63L58.04,29.25z M77.08,74c0,16.98-13.77,30.75-30.75,30.75
	c-16.98,0-30.75-13.77-30.75-30.75s13.77-30.75,30.75-30.75C63.32,43.25,77.08,57.02,77.08,74z M61.22,42.6
	c-4.51-2.15-9.56-3.35-14.88-3.35c-5.32,0-10.37,1.21-14.88,3.35l2.23-9.35h0.95h23.4h0.95L61.22,42.6z"/>
<polygon class="st0" points="45.42,3.64 4.02,3.64 0,0 41.4,0 "/>
<polygon class="st0" points="88.25,3.64 48.18,3.64 49.58,0 90.98,0 "/>
</svg>
